<svg xmlns="http://www.w3.org/2000/svg" xmlns:xlink="http://www.w3.org/1999/xlink" width="200" height="58" viewBox="0 0 200 58">
    <defs>
        <path id="a" d="M56.101 28.064v28.022H.112V.043h55.99v28.021z"/>
    </defs>
    <g fill="none" fill-rule="evenodd">
        <path fill="#FFFFFE" d="M50.313 31.24c.005-6.15 4.96-11.103 11.06-11.097a11.17 11.17 0 0 1 9.631 5.54c.618 1.062.22 2.389-.798 3.007a2.26 2.26 0 0 1-3.005-.798 6.7 6.7 0 0 0-5.833-3.368c-3.668-.003-6.72 3.003-6.724 6.72-.003 3.673 3.045 6.73 6.713 6.733a6.672 6.672 0 0 0 5.66-3.093c.665-1.018 2.035-1.282 3.052-.662 1.016.666 1.28 2.037.615 3.054-2.035 3.185-5.53 5.084-9.33 5.081-6.1-.005-11.047-5.01-11.041-11.117M74.17 31.216c.004-6.15 5.004-11.103 11.104-11.097a11.08 11.08 0 0 1 11.085 11.117c-.005 6.107-4.96 11.103-11.105 11.097-6.1-.004-11.09-5.01-11.085-11.117m4.376.004c-.004 3.674 3 6.729 6.713 6.732 3.713.004 6.721-3.047 6.725-6.72a6.72 6.72 0 1 0-13.438-.012M110.518 24.905zm2.544-2.55c.001-1.381-1.122-2.501-2.535-2.51v-.002h-.012-.011c-6.284 0-11.43 5.102-11.436 11.439l-.009 8.46v.003a2.559 2.559 0 0 0 2.546 2.554h.041l.034-.008c1.359-.043 2.434-1.188 2.437-2.544l.008-8.461a6.379 6.379 0 0 1 6.377-6.38l.056.001.029-.009a2.555 2.555 0 0 0 2.475-2.543h-.34.34zM47.661 29.16c.248 1.174-.54 2.317-1.801 2.553l-15.536 2.908a7.172 7.172 0 0 0 7.431 3.269c1.036-.194 2.864-.627 4.74-2.38.898-.847 2.422-.499 3.183.444.77.987.424 2.228-.474 3.075-2.568 2.47-4.873 2.857-6.54 3.17-6.259 1.17-12.34-2.803-13.608-8.808-1.277-6.05 2.738-11.867 8.997-13.039 5.45-1.02 12.111 1.714 13.608 8.808m-18.29 1.43l.277-.068 13.014-2.435c-1.589-2.87-4.997-3.932-7.7-3.427-3.016.565-5.143 2.908-5.548 5.653l-.043.277M149.62 41.609c.003-.001.003-.002.003-.004 0 0 0-.003.003-.004l-.006.008M182.382 21.525h-.06a5.996 5.996 0 0 0-4.18 1.676 5.785 5.785 0 0 0-1.782 4.128v.004l-.001.054a5.78 5.78 0 0 0 1.701 4.1 5.987 5.987 0 0 0 4.206 1.76l.06.001a5.99 5.99 0 0 0 4.177-1.68c1.095-1.062 1.77-2.5 1.786-4.125v-.06a5.78 5.78 0 0 0-1.703-4.1 5.993 5.993 0 0 0-4.204-1.758"/>
        <g transform="translate(142.968 .5)">
            <mask id="b" fill="#fff">
                <use xlink:href="#a"/>
            </mask>
            <path fill="#FFFFFE" d="M21.691 24.227l-.003-.005c-.827-1.505-2.222-2.592-4.024-2.928a5.743 5.743 0 0 0-1.003-.097h-.056c-1.349 0-2.629.473-3.633 1.285a5.559 5.559 0 0 0-2.081 4.285v.003l-.002.051c0 2.633 1.913 5.007 4.674 5.508.34.06.684.097 1.003.1h.055c2.093.002 4.03-1.151 5.01-2.919l.003-.005.004-.007c.058-.099.12-.189.188-.27l.091-4.676a2.15 2.15 0 0 1-.224-.32l-.002-.005" mask="url(#b)"/>
            <path fill="#FFFFFE" d="M49.65 26.985c-.057 5.582-4.665 10.052-10.3 10.051h-.096c-5.644-.059-10.191-4.581-10.193-10.148v-.102.001c.058-5.582 4.66-10.05 10.293-10.05h.102c5.644.054 10.193 4.578 10.195 10.147l-.002.1v.001zm-22.92-7.967v-.001l-.016.887-.256 13.661c0 .152-.005.302-.012.452v.005a9.729 9.729 0 0 1-5.592 8.356c-1.376.77-2.875 1.26-4.795 1.26h-.078c-.201.02-.4.03-.594.03-2.24-.009-3.93-1.088-3.987-1.117v-.001a2.186 2.186 0 0 1-1.17-1.925c0-.327.076-.66.23-.97a2.223 2.223 0 0 1 2.953-.992h.004c.86.419 1.726.597 2.603.606h.073c1.177.002 2.373-.334 3.375-.863h.001c1.01-.526 1.832-1.277 2.22-1.873l.008-.018c.011-.031.027-.085.043-.15.033-.134.066-.317.096-.516.018-.112.034-.23.048-.349a10.222 10.222 0 0 1-4.974 1.294l-.099-.001a10.354 10.354 0 0 1-1.766-.165c-4.87-.898-8.288-5.076-8.288-9.806v-.099c.006-.578.068-1.161.173-1.74l.001-.004c.918-4.808 5.174-8.15 9.962-8.15l.1.001c.579.006 1.173.057 1.768.17 1.334.241 2.556.736 3.628 1.42a2.203 2.203 0 0 1 2.131-1.63h.042c1.198.023 2.168.987 2.169 2.183l-.001.045zM47.902 8.25A27.9 27.9 0 0 0 28.106.043 27.9 27.9 0 0 0 8.312 8.251a27.963 27.963 0 0 0-8.2 19.818 27.962 27.962 0 0 0 8.2 19.817 27.897 27.897 0 0 0 19.794 8.208 27.898 27.898 0 0 0 19.796-8.208 27.967 27.967 0 0 0 8.2-19.817 27.967 27.967 0 0 0-8.2-19.818z" mask="url(#b)"/>
        </g>
        <path fill="#FFFFFE" d="M152.832 41.309l-.011-.005.011.005"/>
        <g fill="#FFFFFE">
            <path d="M125.01 37.91c-3.653-.019-6.573-3.04-6.567-6.798.005-3.684 2.962-6.702 6.584-6.72 3.617-.018 6.616 3.052 6.614 6.773 0 3.716-2.995 6.761-6.63 6.744zm13.896 2.125l.001-.008a6.948 6.948 0 0 1-2.194-5.075l-.019.023c-.047-3.433-.074-6.897-.107-10.384.038-6.657.16-13.333.162-13.588.001-1.37-1.112-2.485-2.53-2.486a2.486 2.486 0 0 0-2.484 2.482l-.013 9.611h-.007v2.491c-5.329-4.969-12.067-2.894-15.24.45-3.7 3.9-4.078 10.02-.769 14.283 1.958 2.521 4.553 3.968 7.723 4.3 3.165.332 5.906-.63 8.255-3.104l-.001.026c.824 2.124 2.438 4.186 4.751 5.03.19.07.436.101.69.104l.118.012a2.425 2.425 0 0 0 2.424-2.427c0-.69-.298-1.299-.76-1.74zM10.746 27.742c-.39 0-5.662.025-5.662-.112L5.1 17.333l7.147.026c2.924 0 5.295 2.158 5.295 5.016 0 1.565-.643 3.135-1.901 4.135-1.36 1.081-3.21 1.236-4.896 1.232zm11.806 13.924l.048.008c-4.321-.978-7.208-5.333-6.761-9.755l.016-.178c.152-.071.302-.145.45-.223l.252-.135a11.379 11.379 0 0 0 5.59-7.327c.075-.445.132-.877.168-1.296.497-5.746-2.65-9.005-8.578-9.936-1.497-.235-4.188-.189-7.05-.213-2.629-.021-6.412.016-6.412.016v.002L0 12.63l.016 31.915h.002a2.542 2.542 0 0 0 5.084-.03V32.4s5.955-.013 5.957-.012c.063 6.102 4.01 12.474 10.177 13.807.262.056.534.108.826.151a2.366 2.366 0 0 0 .49-4.68z"/>
        </g>
    </g>
</svg>
